<svg width="471" height="64" viewBox="0 0 471 64" fill="none" xmlns="http://www.w3.org/2000/svg">
<path d="M17.6477 50.6818C14.0568 50.6818 10.9659 49.9545 8.375 48.5C5.79924 47.0303 3.81439 44.9545 2.42045 42.2727C1.02652 39.5758 0.329545 36.3864 0.329545 32.7045C0.329545 29.1136 1.02652 25.9621 2.42045 23.25C3.81439 20.5379 5.77652 18.4242 8.30682 16.9091C10.8523 15.3939 13.8371 14.6364 17.2614 14.6364C19.5644 14.6364 21.7083 15.0076 23.6932 15.75C25.6932 16.4773 27.4356 17.5758 28.9205 19.0455C30.4205 20.5152 31.5871 22.3636 32.4205 24.5909C33.2538 26.803 33.6705 29.3939 33.6705 32.3636V35.0227H4.19318V29.0227H24.5568C24.5568 27.6288 24.2538 26.3939 23.6477 25.3182C23.0417 24.2424 22.2008 23.4015 21.125 22.7955C20.0644 22.1742 18.8295 21.8636 17.4205 21.8636C15.9508 21.8636 14.6477 22.2045 13.5114 22.8864C12.3902 23.553 11.5114 24.4545 10.875 25.5909C10.2386 26.7121 9.91288 27.9621 9.89773 29.3409V35.0455C9.89773 36.7727 10.2159 38.2652 10.8523 39.5227C11.5038 40.7803 12.4205 41.75 13.6023 42.4318C14.7841 43.1136 16.1856 43.4545 17.8068 43.4545C18.8826 43.4545 19.8674 43.303 20.7614 43C21.6553 42.697 22.4205 42.2424 23.0568 41.6364C23.6932 41.0303 24.178 40.2879 24.5114 39.4091L33.4659 40C33.0114 42.1515 32.0795 44.0303 30.6705 45.6364C29.2765 47.2273 27.4735 48.4697 25.2614 49.3636C23.0644 50.2424 20.5265 50.6818 17.6477 50.6818ZM49.9432 50.6591C47.7159 50.6591 45.7311 50.2727 43.9886 49.5C42.2462 48.7121 40.8674 47.553 39.8523 46.0227C38.8523 44.4773 38.3523 42.553 38.3523 40.25C38.3523 38.3106 38.7083 36.6818 39.4205 35.3636C40.1326 34.0455 41.1023 32.9848 42.3295 32.1818C43.5568 31.3788 44.9508 30.7727 46.5114 30.3636C48.0871 29.9545 49.7386 29.6667 51.4659 29.5C53.4962 29.2879 55.1326 29.0909 56.375 28.9091C57.6174 28.7121 58.5189 28.4242 59.0795 28.0455C59.6402 27.6667 59.9205 27.1061 59.9205 26.3636V26.2273C59.9205 24.7879 59.4659 23.6742 58.5568 22.8864C57.6629 22.0985 56.3902 21.7045 54.7386 21.7045C52.9962 21.7045 51.6098 22.0909 50.5795 22.8636C49.5492 23.6212 48.8674 24.5758 48.5341 25.7273L39.5795 25C40.0341 22.8788 40.928 21.0455 42.2614 19.5C43.5947 17.9394 45.3144 16.7424 47.4205 15.9091C49.5417 15.0606 51.9962 14.6364 54.7841 14.6364C56.7235 14.6364 58.5795 14.8636 60.3523 15.3182C62.1402 15.7727 63.7235 16.4773 65.1023 17.4318C66.4962 18.3864 67.5947 19.6136 68.3977 21.1136C69.2008 22.5985 69.6023 24.3788 69.6023 26.4545V50H60.4205V45.1591H60.1477C59.5871 46.25 58.8371 47.2121 57.8977 48.0455C56.9583 48.8636 55.8295 49.5076 54.5114 49.9773C53.1932 50.4318 51.6705 50.6591 49.9432 50.6591ZM52.7159 43.9773C54.1402 43.9773 55.3977 43.697 56.4886 43.1364C57.5795 42.5606 58.4356 41.7879 59.0568 40.8182C59.678 39.8485 59.9886 38.75 59.9886 37.5227V33.8182C59.6856 34.0152 59.2689 34.197 58.7386 34.3636C58.2235 34.5152 57.6402 34.6591 56.9886 34.7955C56.3371 34.9167 55.6856 35.0303 55.0341 35.1364C54.3826 35.2273 53.7917 35.3106 53.2614 35.3864C52.125 35.553 51.1326 35.8182 50.2841 36.1818C49.4356 36.5455 48.7765 37.0379 48.3068 37.6591C47.8371 38.2652 47.6023 39.0227 47.6023 39.9318C47.6023 41.25 48.0795 42.2576 49.0341 42.9545C50.0038 43.6364 51.2311 43.9773 52.7159 43.9773ZM95.6818 15.0909V22.3636H74.6591V15.0909H95.6818ZM79.4318 6.72727H89.1136V39.2727C89.1136 40.1667 89.25 40.8636 89.5227 41.3636C89.7955 41.8485 90.1742 42.1894 90.6591 42.3864C91.1591 42.5833 91.7348 42.6818 92.3864 42.6818C92.8409 42.6818 93.2955 42.6439 93.75 42.5682C94.2045 42.4773 94.553 42.4091 94.7955 42.3636L96.3182 49.5682C95.8333 49.7197 95.1515 49.8939 94.2727 50.0909C93.3939 50.303 92.3258 50.4318 91.0682 50.4773C88.7348 50.5682 86.6894 50.2576 84.9318 49.5455C83.1894 48.8333 81.8333 47.7273 80.8636 46.2273C79.8939 44.7273 79.4167 42.8333 79.4318 40.5455V6.72727ZM101.989 50V15.0909H111.67V50H101.989ZM106.852 10.5909C105.413 10.5909 104.178 10.1136 103.148 9.15909C102.133 8.18939 101.625 7.0303 101.625 5.68182C101.625 4.34848 102.133 3.20454 103.148 2.25C104.178 1.2803 105.413 0.795452 106.852 0.795452C108.292 0.795452 109.519 1.2803 110.534 2.25C111.564 3.20454 112.08 4.34848 112.08 5.68182C112.08 7.0303 111.564 8.18939 110.534 9.15909C109.519 10.1136 108.292 10.5909 106.852 10.5909ZM129.108 29.8182V50H119.426V15.0909H128.653V21.25H129.062C129.835 19.2197 131.131 17.6136 132.949 16.4318C134.767 15.2348 136.972 14.6364 139.562 14.6364C141.987 14.6364 144.1 15.1667 145.903 16.2273C147.706 17.2879 149.108 18.803 150.108 20.7727C151.108 22.7273 151.608 25.0606 151.608 27.7727V50H141.926V29.5C141.941 27.3636 141.396 25.697 140.29 24.5C139.184 23.2879 137.661 22.6818 135.722 22.6818C134.419 22.6818 133.267 22.9621 132.267 23.5227C131.282 24.0833 130.509 24.9015 129.949 25.9773C129.403 27.0379 129.123 28.3182 129.108 29.8182ZM174.966 63.8182C171.83 63.8182 169.14 63.3864 166.898 62.5227C164.67 61.6742 162.898 60.5152 161.58 59.0455C160.261 57.5758 159.405 55.9242 159.011 54.0909L167.966 52.8864C168.239 53.5833 168.67 54.2348 169.261 54.8409C169.852 55.447 170.633 55.9318 171.602 56.2955C172.587 56.6742 173.784 56.8636 175.193 56.8636C177.299 56.8636 179.034 56.3485 180.398 55.3182C181.777 54.303 182.466 52.5985 182.466 50.2045V43.8182H182.057C181.633 44.7879 180.996 45.7045 180.148 46.5682C179.299 47.4318 178.208 48.1364 176.875 48.6818C175.542 49.2273 173.951 49.5 172.102 49.5C169.481 49.5 167.095 48.8939 164.943 47.6818C162.807 46.4545 161.102 44.5833 159.83 42.0682C158.572 39.5379 157.943 36.3409 157.943 32.4773C157.943 28.5227 158.587 25.2197 159.875 22.5682C161.163 19.9167 162.875 17.9318 165.011 16.6136C167.163 15.2955 169.519 14.6364 172.08 14.6364C174.034 14.6364 175.67 14.9697 176.989 15.6364C178.307 16.2879 179.367 17.1061 180.17 18.0909C180.989 19.0606 181.617 20.0152 182.057 20.9545H182.42V15.0909H192.034V50.3409C192.034 53.3106 191.307 55.7955 189.852 57.7955C188.398 59.7955 186.383 61.2955 183.807 62.2955C181.246 63.3106 178.299 63.8182 174.966 63.8182ZM175.17 42.2273C176.731 42.2273 178.049 41.8409 179.125 41.0682C180.216 40.2803 181.049 39.1591 181.625 37.7045C182.216 36.2348 182.511 34.4773 182.511 32.4318C182.511 30.3864 182.223 28.6136 181.648 27.1136C181.072 25.5985 180.239 24.4242 179.148 23.5909C178.057 22.7576 176.731 22.3409 175.17 22.3409C173.58 22.3409 172.239 22.7727 171.148 23.6364C170.057 24.4848 169.231 25.6667 168.67 27.1818C168.11 28.697 167.83 30.447 167.83 32.4318C167.83 34.447 168.11 36.1894 168.67 37.6591C169.246 39.1136 170.072 40.2424 171.148 41.0455C172.239 41.8333 173.58 42.2273 175.17 42.2273ZM205.398 50.5909C203.898 50.5909 202.61 50.0606 201.534 49C200.473 47.9242 199.943 46.6364 199.943 45.1364C199.943 43.6515 200.473 42.3788 201.534 41.3182C202.61 40.2576 203.898 39.7273 205.398 39.7273C206.852 39.7273 208.125 40.2576 209.216 41.3182C210.307 42.3788 210.852 43.6515 210.852 45.1364C210.852 46.1364 210.595 47.053 210.08 47.8864C209.58 48.7045 208.92 49.3636 208.102 49.8636C207.284 50.3485 206.383 50.5909 205.398 50.5909ZM228.483 3.45454V50H218.801V3.45454H228.483ZM252.011 50.6818C248.481 50.6818 245.428 49.9318 242.852 48.4318C240.292 46.9167 238.314 44.8106 236.92 42.1136C235.527 39.4015 234.83 36.2576 234.83 32.6818C234.83 29.0758 235.527 25.9242 236.92 23.2273C238.314 20.5152 240.292 18.4091 242.852 16.9091C245.428 15.3939 248.481 14.6364 252.011 14.6364C255.542 14.6364 258.587 15.3939 261.148 16.9091C263.723 18.4091 265.708 20.5152 267.102 23.2273C268.496 25.9242 269.193 29.0758 269.193 32.6818C269.193 36.2576 268.496 39.4015 267.102 42.1136C265.708 44.8106 263.723 46.9167 261.148 48.4318C258.587 49.9318 255.542 50.6818 252.011 50.6818ZM252.057 43.1818C253.663 43.1818 255.004 42.7273 256.08 41.8182C257.155 40.8939 257.966 39.6364 258.511 38.0455C259.072 36.4545 259.352 34.6439 259.352 32.6136C259.352 30.5833 259.072 28.7727 258.511 27.1818C257.966 25.5909 257.155 24.3333 256.08 23.4091C255.004 22.4848 253.663 22.0227 252.057 22.0227C250.436 22.0227 249.072 22.4848 247.966 23.4091C246.875 24.3333 246.049 25.5909 245.489 27.1818C244.943 28.7727 244.67 30.5833 244.67 32.6136C244.67 34.6439 244.943 36.4545 245.489 38.0455C246.049 39.6364 246.875 40.8939 247.966 41.8182C249.072 42.7273 250.436 43.1818 252.057 43.1818ZM285.17 29.8182V50H275.489V15.0909H284.716V21.25H285.125C285.898 19.2197 287.193 17.6136 289.011 16.4318C290.83 15.2348 293.034 14.6364 295.625 14.6364C298.049 14.6364 300.163 15.1667 301.966 16.2273C303.769 17.2879 305.17 18.803 306.17 20.7727C307.17 22.7273 307.67 25.0606 307.67 27.7727V50H297.989V29.5C298.004 27.3636 297.458 25.697 296.352 24.5C295.246 23.2879 293.723 22.6818 291.784 22.6818C290.481 22.6818 289.33 22.9621 288.33 23.5227C287.345 24.0833 286.572 24.9015 286.011 25.9773C285.466 27.0379 285.186 28.3182 285.17 29.8182ZM328.165 50.5682C325.513 50.5682 323.112 49.8864 320.96 48.5227C318.824 47.1439 317.127 45.1212 315.869 42.4545C314.627 39.7727 314.006 36.4848 314.006 32.5909C314.006 28.5909 314.65 25.2652 315.938 22.6136C317.225 19.947 318.938 17.9545 321.074 16.6364C323.225 15.303 325.581 14.6364 328.142 14.6364C330.097 14.6364 331.725 14.9697 333.028 15.6364C334.347 16.2879 335.407 17.1061 336.21 18.0909C337.028 19.0606 337.65 20.0152 338.074 20.9545H338.369V3.45454H348.028V50H338.483V44.4091H338.074C337.619 45.3788 336.975 46.3409 336.142 47.2955C335.324 48.2348 334.256 49.0152 332.938 49.6364C331.634 50.2576 330.044 50.5682 328.165 50.5682ZM331.233 42.8636C332.794 42.8636 334.112 42.4394 335.188 41.5909C336.278 40.7273 337.112 39.5227 337.688 37.9773C338.278 36.4318 338.574 34.6212 338.574 32.5455C338.574 30.4697 338.286 28.6667 337.71 27.1364C337.134 25.6061 336.301 24.4242 335.21 23.5909C334.119 22.7576 332.794 22.3409 331.233 22.3409C329.642 22.3409 328.301 22.7727 327.21 23.6364C326.119 24.5 325.294 25.697 324.733 27.2273C324.172 28.7576 323.892 30.5303 323.892 32.5455C323.892 34.5758 324.172 36.3712 324.733 37.9318C325.309 39.4773 326.134 40.6894 327.21 41.5682C328.301 42.4318 329.642 42.8636 331.233 42.8636ZM371.761 50.6818C368.231 50.6818 365.178 49.9318 362.602 48.4318C360.042 46.9167 358.064 44.8106 356.67 42.1136C355.277 39.4015 354.58 36.2576 354.58 32.6818C354.58 29.0758 355.277 25.9242 356.67 23.2273C358.064 20.5152 360.042 18.4091 362.602 16.9091C365.178 15.3939 368.231 14.6364 371.761 14.6364C375.292 14.6364 378.337 15.3939 380.898 16.9091C383.473 18.4091 385.458 20.5152 386.852 23.2273C388.246 25.9242 388.943 29.0758 388.943 32.6818C388.943 36.2576 388.246 39.4015 386.852 42.1136C385.458 44.8106 383.473 46.9167 380.898 48.4318C378.337 49.9318 375.292 50.6818 371.761 50.6818ZM371.807 43.1818C373.413 43.1818 374.754 42.7273 375.83 41.8182C376.905 40.8939 377.716 39.6364 378.261 38.0455C378.822 36.4545 379.102 34.6439 379.102 32.6136C379.102 30.5833 378.822 28.7727 378.261 27.1818C377.716 25.5909 376.905 24.3333 375.83 23.4091C374.754 22.4848 373.413 22.0227 371.807 22.0227C370.186 22.0227 368.822 22.4848 367.716 23.4091C366.625 24.3333 365.799 25.5909 365.239 27.1818C364.693 28.7727 364.42 30.5833 364.42 32.6136C364.42 34.6439 364.693 36.4545 365.239 38.0455C365.799 39.6364 366.625 40.8939 367.716 41.8182C368.822 42.7273 370.186 43.1818 371.807 43.1818ZM404.92 29.8182V50H395.239V15.0909H404.466V21.25H404.875C405.648 19.2197 406.943 17.6136 408.761 16.4318C410.58 15.2348 412.784 14.6364 415.375 14.6364C417.799 14.6364 419.913 15.1667 421.716 16.2273C423.519 17.2879 424.92 18.803 425.92 20.7727C426.92 22.7273 427.42 25.0606 427.42 27.7727V50H417.739V29.5C417.754 27.3636 417.208 25.697 416.102 24.5C414.996 23.2879 413.473 22.6818 411.534 22.6818C410.231 22.6818 409.08 22.9621 408.08 23.5227C407.095 24.0833 406.322 24.9015 405.761 25.9773C405.216 27.0379 404.936 28.3182 404.92 29.8182ZM445.284 29.1818V12.4091H453.489C454.549 12.4091 455.519 12.6288 456.398 13.0682C457.292 13.5076 457.996 14.1439 458.511 14.9773C459.042 15.7955 459.307 16.7955 459.307 17.9773C459.307 19.1591 459.034 20.1667 458.489 21C457.943 21.8333 457.216 22.4697 456.307 22.9091C455.398 23.3333 454.39 23.5455 453.284 23.5455H447.67V20.3864H452.375C453.011 20.3864 453.557 20.1818 454.011 19.7727C454.481 19.3636 454.716 18.7576 454.716 17.9545C454.716 17.1212 454.481 16.5303 454.011 16.1818C453.557 15.8182 453.019 15.6364 452.398 15.6364H449.648V29.1818H445.284ZM455.989 21.4318L459.807 29.1818H455.034L451.466 21.4318H455.989ZM451.852 39.1818C449.337 39.1818 446.981 38.7121 444.784 37.7727C442.587 36.8333 440.655 35.5303 438.989 33.8636C437.322 32.197 436.019 30.2652 435.08 28.0682C434.14 25.8712 433.67 23.5152 433.67 21C433.67 18.4848 434.14 16.1288 435.08 13.9318C436.019 11.7348 437.322 9.80303 438.989 8.13636C440.655 6.4697 442.587 5.16667 444.784 4.22727C446.981 3.28788 449.337 2.81818 451.852 2.81818C454.367 2.81818 456.723 3.28788 458.92 4.22727C461.117 5.16667 463.049 6.4697 464.716 8.13636C466.383 9.80303 467.686 11.7348 468.625 13.9318C469.564 16.1288 470.034 18.4848 470.034 21C470.034 23.5152 469.564 25.8712 468.625 28.0682C467.686 30.2652 466.383 32.197 464.716 33.8636C463.049 35.5303 461.117 36.8333 458.92 37.7727C456.723 38.7121 454.367 39.1818 451.852 39.1818ZM451.852 34.3864C454.337 34.3864 456.587 33.7879 458.602 32.5909C460.633 31.3788 462.246 29.7652 463.443 27.75C464.64 25.7197 465.239 23.4697 465.239 21C465.239 18.5303 464.633 16.2879 463.42 14.2727C462.223 12.2424 460.61 10.6288 458.58 9.43182C456.564 8.2197 454.322 7.61364 451.852 7.61364C449.398 7.61364 447.155 8.2197 445.125 9.43182C443.095 10.6288 441.481 12.2424 440.284 14.2727C439.087 16.2879 438.489 18.5303 438.489 21C438.489 23.4697 439.087 25.7197 440.284 27.75C441.481 29.7652 443.095 31.3788 445.125 32.5909C447.155 33.7879 449.398 34.3864 451.852 34.3864Z" fill="black"/>
</svg>
